<?xml version="1.0" encoding="UTF-8" standalone="no"?>
<!-- Created with Inkscape (http://www.inkscape.org/) -->

<svg
   width="51.677982mm"
   height="67.508018mm"
   viewBox="0 0 51.677986 67.508019"
   version="1.1"
   id="svg5"
   inkscape:version="1.2.2 (b0a8486541, 2022-12-01)"
   sodipodi:docname="db_to_sql.svg"
   xmlns:inkscape="http://www.inkscape.org/namespaces/inkscape"
   xmlns:sodipodi="http://sodipodi.sourceforge.net/DTD/sodipodi-0.dtd"
   xmlns="http://www.w3.org/2000/svg"
   xmlns:svg="http://www.w3.org/2000/svg">
  <sodipodi:namedview
     id="namedview7"
     pagecolor="#505050"
     bordercolor="#ffffff"
     borderopacity="1"
     inkscape:showpageshadow="0"
     inkscape:pageopacity="0"
     inkscape:pagecheckerboard="1"
     inkscape:deskcolor="#505050"
     inkscape:document-units="mm"
     showgrid="false"
     inkscape:zoom="2"
     inkscape:cx="77.25"
     inkscape:cy="95.5"
     inkscape:window-width="1920"
     inkscape:window-height="1008"
     inkscape:window-x="0"
     inkscape:window-y="0"
     inkscape:window-maximized="1"
     inkscape:current-layer="layer1" />
  <defs
     id="defs2">
    <rect
       x="252.92096"
       y="141.81732"
       width="81.010376"
       height="76.759857"
       id="rect3943" />
  </defs>
  <g
     inkscape:label="Layer 1"
     inkscape:groupmode="layer"
     id="layer1"
     transform="translate(-58.565656,-90.65754)">
    <path
       id="rect341"
       style="fill:#ffffff;stroke:none;stroke-width:1.7589;stroke-linejoin:round;paint-order:stroke fill markers"
       d="m 83.56568,90.65754 a 25,7 0 0 0 -25.000024,7.00009 25,7 0 0 0 25.000024,7.00009 25,7 0 0 0 24.99951,-7.00009 25,7 0 0 0 -24.99951,-7.00009 z m -25.000024,9.73429 v 13.76557 a 25,7 0 0 0 6.479191,4.69739 v -8.09718 a 1.250125,1.250125 0 0 1 1.250053,-1.25006 h 3.830257 a 1.250125,1.250125 0 0 1 1.250053,1.25006 v 9.50743 a 25,7 0 0 0 24.689966,-0.0455 25,7 0 0 0 12.500014,-6.06216 v -13.76454 c -0.36962,0.37595 -0.8022,0.71977 -1.27383,1.03198 -1.4398,0.95317 -3.36922,1.73131 -5.71076,2.38694 -4.683038,1.31121 -11.017392,2.09548 -18.015437,2.09548 -6.998062,0 -13.330856,-0.78427 -18.013887,-2.09548 -2.341513,-0.65563 -4.270931,-1.43377 -5.710763,-2.38694 -0.472034,-0.31248 -0.904749,-0.65667 -1.274857,-1.03301 z m 7.728727,10.36526 v 37.51605 h -3.795634 l 5.711796,9.89242 5.710763,-9.89242 h -3.795634 v -37.51605 z m -7.728727,6.12882 v 13.77177 a 25,7 0 0 0 6.479191,4.69739 v -15.1877 c -1.393979,-0.41316 -2.624651,-0.87542 -3.675228,-1.38493 -1.149257,-0.55736 -2.090245,-1.16825 -2.803963,-1.89653 z m 49.999534,0.001 c -0.7136,0.72783 -1.65421,1.33839 -2.80293,1.89549 -2.33394,1.13192 -5.55084,2.03355 -9.49813,2.67167 -7.727025,1.24914 -17.092183,1.27206 -24.88892,0.076 v 15.23525 a 25,7 0 0 0 24.689966,-0.0455 25,7 0 0 0 12.500014,-6.06216 z m -49.999534,16.49873 v 13.77177 a 25,7 0 0 0 4.046264,3.81269 l -1.195792,-2.07171 a 1.250125,1.250125 0 0 1 1.082104,-1.87482 h 2.546615 v -10.35596 c -1.393979,-0.41316 -2.62465,-0.87542 -3.675228,-1.38493 -1.149274,-0.55738 -2.09024,-1.16874 -2.803963,-1.89704 z m 49.999534,0.001 c -0.71361,0.72784 -1.65419,1.3389 -2.80293,1.89601 -2.33395,1.13192 -5.55083,2.0336 -9.49813,2.67167 -7.727025,1.24914 -17.092174,1.27206 -24.88892,0.076 v 8.99325 h 2.546614 a 1.250125,1.250125 0 0 1 1.082105,1.87482 l -2.607593,4.51652 a 25,7 0 0 0 4.843632,0.50384 l 2.507857,-4.4111 -4.031278,-7.16597 a 1.250125,1.250125 0 0 1 1.096057,-1.86345 l 2.17196,0.0119 a 1.250125,1.250125 0 0 1 1.081588,0.63458 l 2.41639,4.27364 2.689242,-4.32014 a 1.250125,1.250125 0 0 1 1.0604,-0.58808 h 2.216919 a 1.250125,1.250125 0 0 1 1.026294,0.54208 1.250125,1.250125 0 0 1 1.024744,-0.54208 h 2.202966 a 1.250125,1.250125 0 0 1 1.250053,1.25005 v 11.78068 a 25,7 0 0 0 2.112016,-0.30128 25,7 0 0 0 7.740614,-1.96008 l -0.20774,-0.0972 a 1.250125,1.250125 0 0 1 -0.002,0 c -1.24299,-0.58006 -2.22909,-1.31387 -2.84582,-2.30063 a 1.250125,1.250125 0 0 1 -0.006,-0.008 c -0.57048,-0.92825 -0.834058,-2.0271 -0.834058,-3.20135 0,-1.50004 0.592358,-2.90313 1.675868,-3.91191 1.09117,-1.01591 2.55183,-1.52756 4.1367,-1.52756 1.07783,0 2.02478,0.0772 2.84272,0.30645 z m -2.84169,8.07703 c -1.33761,0 -2.43252,0.39688 -3.28507,1.19063 -0.85255,0.79375 -1.27899,1.79345 -1.27899,2.99878 0,0.99219 0.21698,1.84105 0.6506,2.54661 0.44098,0.70556 1.21268,1.3154 2.31511,1.82987 l 1.30069,0.60616 c 1.16858,0.55121 1.89618,1.06235 2.18282,1.53272 0.29398,0.46302 0.44131,0.96612 0.44131,1.50999 0,0.72761 -0.26108,1.32694 -0.78289,1.79731 -0.52182,0.47037 -1.21285,0.70538 -2.07275,0.70538 -0.48506,0 -1.03628,-0.0992 -1.65364,-0.29766 -0.61001,-0.20578 -1.12064,-0.45935 -1.53221,-0.76067 l -0.8046,2.0283 c 1.01424,0.67616 2.23794,1.0144 3.67109,1.0144 1.6316,0 2.93247,-0.42242 3.90261,-1.26762 0.97748,-0.8452 1.46606,-1.87448 1.46606,-3.08715 0,-1.11712 -0.22399,-2.03564 -0.67231,-2.7559 -0.44097,-0.7276 -1.21267,-1.35249 -2.31511,-1.87431 l -1.32291,-0.62838 c -0.85255,-0.41158 -1.41881,-0.73128 -1.69809,-0.95912 -0.27193,-0.22784 -0.4849,-0.51045 -0.63924,-0.84852 -0.15434,-0.33808 -0.23151,-0.71291 -0.23151,-1.12448 0,-0.66882 0.21297,-1.21652 0.63924,-1.6428 0.43362,-0.42627 1.02543,-0.63923 1.77508,-0.63923 0.51448,0 1.07321,0.0992 1.67587,0.29765 0.60266,0.19843 1.05064,0.40388 1.34462,0.61702 l 0.65061,-1.91823 c -0.69821,-0.58061 -1.94045,-0.87075 -3.72639,-0.87075 z m -28.91658,0.26458 4.376477,7.78299 -4.7625,8.37882 h 2.227254 l 3.704167,-6.48229 4.012674,6.48229 h 2.337326 l -5.269963,-8.33438 5.016231,-7.81657 h -2.215885 l -3.803386,6.10763 -3.450435,-6.10763 z m 13.692187,0.0109 v 16.15095 h 9.502783 v -1.98438 h -7.29775 v -14.16657 z m -1.249019,1.06453 -4.33617,6.75669 2.837036,4.48707 a 25,7 0 0 0 1.499134,-0.0811 z m 16.529742,1.78439 c -0.50936,0 -0.71689,0.10725 -0.89297,0.27905 -0.19189,0.19313 -0.2713,0.35225 -0.2713,0.75241 0,0.25532 0.0425,0.44137 0.1173,0.60513 0.0825,0.18075 0.17814,0.29971 0.30438,0.40618 0.0889,0.0708 0.62683,0.40288 1.4397,0.7953 l -0.008,-0.002 1.3224,0.62684 h 0.002 c 0.15389,0.0729 0.3038,0.14872 0.44959,0.22686 a 25,7 0 0 0 0.32246,-1.12035 v -1.68155 a 1.250125,1.250125 0 0 1 -0.49868,-0.21032 c -0.11461,-0.0831 -0.46828,-0.26714 -1.00201,-0.44287 -0.50229,-0.16538 -0.93091,-0.23461 -1.28467,-0.23461 z m -23.385138,9.26352 -0.162781,0.28422 a 25,7 0 0 0 0.341065,0.004 z" />
  </g>
</svg>
